HIERARCHY
ROOT Root
{
	OFFSET 0.00 0.00 0.00
	CHANNELS 6 Xposition Yposition Zposition Xrotation Yrotation Zrotation
	JOINT L_Femur
	{
		OFFSET 3.02857 0.00000 0.00000
		CHANNELS 3 Xrotation Yrotation Zrotation
		JOINT L_Tibia
		{
			OFFSET 0.00000 -15.47599 0.00000
			CHANNELS 3 Xrotation Yrotation Zrotation
			JOINT L_Foot
			{
				OFFSET 0.00000 -14.81737 0.00000
				CHANNELS 3 Xrotation Yrotation Zrotation
				JOINT L_Toe
				{
					OFFSET 0.00000 -1.57575 5.88080
					CHANNELS 3 Xrotation Yrotation Zrotation
					End Site
					{
						OFFSET 0.00000 0.00000 2.95275
					}
				}
			}
		}
	}
	JOINT R_Femur
	{
		OFFSET -3.02857 0.00000 0.00000
		CHANNELS 3 Xrotation Yrotation Zrotation
		JOINT R_Tibia
		{
			OFFSET 0.00000 -15.47599 0.00000
			CHANNELS 3 Xrotation Yrotation Zrotation
			JOINT R_Foot
			{
				OFFSET 0.00000 -14.81737 0.00000
				CHANNELS 3 Xrotation Yrotation Zrotation
				JOINT R_Toe
				{
					OFFSET 0.00000 -1.57575 5.88080
					CHANNELS 3 Xrotation Yrotation Zrotation
					End Site
					{
						OFFSET 0.00000 0.00000 2.95275
					}
				}
			}
		}
	}
	JOINT LowerBack
	{
		OFFSET 0.00000 0.03937 0.00000
		CHANNELS 3 Xrotation Yrotation Zrotation
		JOINT Thorax
		{
			OFFSET 0.00000 9.04254 0.00000
			CHANNELS 3 Xrotation Yrotation Zrotation
			JOINT Neck
			{
				OFFSET 0.00000 9.84250 0.00000
				CHANNELS 3 Xrotation Yrotation Zrotation
				JOINT head
				{
					OFFSET 0.00000 6.68101 0.00000
					CHANNELS 3 Xrotation Yrotation Zrotation
					End Site
					{
						OFFSET 0.00000 4.52755 0.00000
					}
				}
			}
			JOINT L_Collar
			{
				OFFSET 0.00000 9.84250 0.00000
				CHANNELS 3 Xrotation Yrotation Zrotation
				JOINT L_Humerus
				{
					OFFSET 6.48613 -0.00002 0.00000
					CHANNELS 3 Xrotation Yrotation Zrotation
					JOINT L_Elbow
					{
						OFFSET 11.24297 -0.00004 0.00000
						CHANNELS 3 Xrotation Yrotation Zrotation
						JOINT L_Wrist
						{
							OFFSET 9.15817 -0.00003 0.00000
							CHANNELS 3 Xrotation Yrotation Zrotation
							JOINT L_Wrist_End
							{
								OFFSET 3.93700 -0.00001 0.00000
								CHANNELS 3 Xrotation Yrotation Zrotation
							}
						}
					}
				}
			}
			JOINT R_Collar
			{
				OFFSET 0.00000 9.84250 0.00000
				CHANNELS 3 Xrotation Yrotation Zrotation
				JOINT R_Humerus
				{
					OFFSET -6.48613 -0.00002 0.00000
					CHANNELS 3 Xrotation Yrotation Zrotation
					JOINT R_Elbow
					{
						OFFSET -11.24297 -0.00004 0.00000
						CHANNELS 3 Xrotation Yrotation Zrotation
						JOINT R_Wrist
						{
							OFFSET -9.15817 -0.00003 0.00000
							CHANNELS 3 Xrotation Yrotation Zrotation
							JOINT R_Wrist_End
							{
								OFFSET -5.41338 -0.00002 0.00000
								CHANNELS 3 Xrotation Yrotation Zrotation
							}
						}
					}
				}
			}
		}
	}
}
MOTION
Frames: 14
Frame Time: 0.008333
 1.4584 32.8162 2.6606 8.9713 49.1465 -8.8175 -4.9341 0.8365 -5.6104 17.6831 -0.0000 0.0000 0.4715 9.0212 9.6866 -36.7601 0.0000 0.0000 -12.3066 11.2199 -5.3505 41.5206 -0.0000 0.0000 5.2686 -7.0028 -0.7010 -31.6855 0.0000 0.0000 -22.3643 -3.0733 -0.7878 5.8944 2.6346 1.8364 22.2822 -9.4505 7.1258 -4.0598 0.6069 -2.9110 0.2405 -10.2281 17.1589 -20.5462 -23.5658 -83.5823 -179.9994 -71.4318 -179.9991 124.4754 77.6654 49.2740 -0.0000 -0.0000 0.0000 6.8306 10.2435 -10.2391 -6.0815 26.7929 89.2371 -179.9994 69.7414 179.9992 35.8183 -18.5638 32.7232 -0.0000 0.0000 -0.0000
 1.2984 32.8677 2.7148 8.6425 46.5584 -8.3394 -5.0233 0.2873 -5.2971 17.3057 -0.0000 0.0000 0.8302 8.8648 9.4022 -36.5137 0.0000 -0.0000 -12.1914 10.6709 -5.5235 41.3931 -0.0000 0.0000 6.0373 -6.3952 0.0480 -31.6438 0.0000 0.0000 -22.3264 -2.9326 -0.6004 5.8594 2.7437 2.0385 22.2182 -8.4099 6.8253 -4.2341 1.5201 -2.8860 0.9637 -9.3202 17.3806 -19.7299 -23.1848 -83.3631 -179.9994 -71.0623 -179.9991 124.8294 78.3770 49.1298 -0.0000 0.0000 -0.0000 7.1900 10.2731 -10.3478 -6.1337 26.4417 89.0088 -179.9994 69.3271 179.9992 35.2045 -18.4178 31.7179 -0.0000 0.0000 -0.0000
 1.1163 32.9165 2.7800 8.3380 43.6778 -7.8204 -4.9249 0.5867 -4.9307 16.6468 -0.0000 0.0000 1.3038 8.4201 9.1435 -36.6984 0.0000 -0.0000 -12.2955 10.2057 -5.5746 41.3392 -0.0000 0.0000 6.6536 -6.0749 0.5613 -32.0067 0.0000 0.0000 -22.1226 -2.5165 -0.4258 5.6080 3.1523 2.2786 22.1847 -7.6841 6.6655 -4.6174 2.1789 -2.9315 1.7528 -8.5848 17.6821 -18.9371 -22.8730 -83.3197 -179.9994 -70.6717 -179.9992 125.4806 78.7579 48.6922 -0.0000 -0.0000 0.0000 7.1363 10.0546 -10.3238 -5.6561 26.2648 88.7535 -179.9995 68.8395 179.9992 35.0307 -18.1056 30.5913 -0.0000 0.0000 -0.0000
 0.9299 32.9564 2.8065 8.1551 40.7928 -7.2945 -5.0133 0.7101 -4.7179 16.1002 -0.0000 0.0000 1.8367 8.3444 8.7055 -36.8828 0.0000 -0.0000 -12.5112 9.7744 -5.8057 41.2647 -0.0000 0.0000 7.1538 -5.5191 1.1954 -32.6290 0.0000 0.0000 -21.9171 -1.8988 -0.3411 5.3153 3.7992 2.5824 22.0108 -7.0651 6.4593 -4.6334 2.5294 -2.8217 2.3119 -8.4059 17.9744 -17.8868 -22.5952 -83.3631 -179.9994 -70.4493 -179.9992 127.5366 79.1768 46.4646 -0.0000 -0.0000 0.0000 7.0986 9.6217 -10.3543 -5.0077 25.9215 88.3831 -179.9995 68.3831 179.9992 33.5792 -18.1448 29.1761 -0.0000 0.0000 -0.0000
 0.7373 32.9941 2.8384 8.0295 38.2452 -6.8514 -5.1647 0.2443 -4.4939 15.7254 -0.0000 0.0000 2.1636 8.4293 8.1871 -36.7619 -0.0000 -0.0000 -12.5839 9.3418 -5.9557 41.0211 -0.0000 0.0000 7.5464 -5.0120 0.8142 -32.9153 0.0000 -0.0000 -21.7642 -1.6891 -0.3010 5.1607 4.0206 2.7663 21.9350 -6.3552 6.3977 -4.7901 3.4537 -3.1245 2.7064 -7.7231 18.1848 -16.6815 -22.1754 -83.3869 -179.9994 -70.2832 -179.9992 126.3648 78.8627 47.5625 -0.0000 0.0000 -0.0000 7.5769 9.5689 -10.4839 -5.0336 25.6222 88.1032 -179.9995 68.0336 179.9992 32.9102 -18.1623 27.6790 -0.0000 -0.0000 0.0000
 0.5566 33.0337 2.8606 8.0203 35.5721 -6.3408 -5.1489 0.2292 -4.3573 14.9274 0.0000 0.0000 2.8290 8.0886 7.6606 -36.8166 0.0000 0.0000 -12.7950 8.8922 -6.2781 40.7257 -0.0000 0.0000 7.8780 -4.3946 1.3977 -33.2768 0.0000 0.0000 -21.7271 -1.1056 -0.3955 4.9124 4.6818 3.1374 21.8313 -5.5912 6.2444 -4.7218 3.9657 -3.1087 2.7086 -8.3403 18.1924 -14.7026 -21.4742 -83.3489 -179.9994 -70.0190 -179.9992 130.9596 80.2971 43.3406 -0.0000 0.0000 -0.0000 7.6133 9.1767 -10.5953 -4.4204 24.9290 87.5642 -179.9995 67.7452 179.9992 31.9074 -17.5627 27.9410 -0.0000 -0.0000 0.0000
 0.3846 33.0808 2.8942 8.0350 33.1517 -5.9570 -5.0472 0.0554 -4.1434 14.1089 0.0000 0.0000 3.3678 8.1254 7.3456 -36.7630 0.0000 -0.0000 -12.8180 8.5468 -6.4539 40.1328 -0.0000 0.0000 8.5831 -3.8313 1.6344 -34.2578 0.0000 -0.0000 -21.6364 -0.8819 -0.4052 4.7278 4.9192 3.2555 21.9222 -5.1183 6.4021 -5.2206 4.7669 -3.5170 3.1625 -7.8187 18.4953 -13.4218 -20.9937 -83.7093 -179.9994 -70.0122 -179.9992 131.7216 80.2400 43.0135 -0.0000 -0.0000 0.0000 8.0504 9.0667 -10.4530 -4.0392 24.6335 87.0081 -179.9995 67.3409 179.9992 30.8773 -17.9194 26.0194 -0.0000 0.0000 -0.0000
 0.2062 33.1118 2.8871 8.2427 30.8558 -5.4447 -5.3148 -0.8469 -4.2401 13.5569 -0.0000 0.0000 3.7806 8.6610 6.8400 -36.4097 0.0000 0.0000 -13.1846 8.0044 -6.9261 39.8804 -0.0000 0.0000 9.1985 -3.2641 1.7649 -34.8681 0.0000 -0.0000 -21.4305 -0.4227 -0.4754 4.2457 5.3827 3.2045 21.8339 -4.3927 6.3905 -5.4548 5.2952 -3.5573 2.9707 -8.4105 18.6867 -11.0406 -20.2592 -83.8827 -179.9994 -69.7419 -179.9992 132.0903 79.9237 42.5495 -0.0000 0.0000 -0.0000 8.0509 8.7592 -10.3852 -3.1892 24.1066 86.7109 -179.9995 67.1670 179.9992 29.8391 -17.8152 24.5261 -0.0000 -0.0000 0.0000
 0.0226 33.1508 2.9125 8.3027 28.8850 -5.1140 -5.2925 -1.6959 -3.9529 12.8892 -0.0000 0.0000 4.1297 8.8127 7.0313 -36.3906 0.0000 -0.0000 -13.0507 7.5933 -7.0093 38.9505 -0.0000 0.0000 9.4545 -3.2085 1.8584 -35.5556 0.0000 -0.0000 -21.3304 -0.4592 -0.5352 4.2714 5.3555 3.1885 21.7054 -4.0691 6.6797 -5.8331 6.5014 -4.3290 3.1714 -7.6561 18.9384 -9.8722 -20.0598 -84.3264 -179.9994 -69.9712 -179.9992 134.5192 80.7184 41.0916 -0.0000 0.0000 -0.0000 7.9242 8.5452 -10.2163 -2.5391 24.4050 86.1763 -179.9995 67.1936 179.9992 29.3454 -17.5780 22.0431 -0.0000 0.0000 -0.0000
 -0.1492 33.1826 2.8935 8.4559 26.6147 -4.5735 -5.4935 -2.2987 -3.9824 12.4505 -0.0000 0.0000 4.7868 9.0331 6.7824 -36.8193 0.0000 0.0000 -13.3129 7.2498 -7.3740 38.3492 -0.0000 0.0000 9.0723 -2.9393 1.3740 -35.1564 0.0000 0.0000 -21.2090 0.0268 -0.5587 3.9451 5.8306 3.0831 21.6796 -3.4395 6.6721 -5.7799 6.8211 -4.2719 3.4851 -8.3208 18.9504 -8.2907 -18.8983 -84.7945 -179.9994 -70.0484 -179.9992 138.3960 81.3154 38.0698 -0.0000 0.0000 -0.0000 8.3877 8.3582 -10.1941 -2.1272 23.7661 85.7591 -179.9995 67.3278 179.9992 28.3905 -17.1565 19.8368 -0.0000 -0.0000 0.0000
 -0.3442 33.2120 2.9098 8.5165 24.7850 -4.2602 -5.7463 -3.3959 -3.7405 12.3546 -0.0000 0.0000 5.1272 9.5954 6.3563 -37.2236 0.0000 0.0000 -13.2213 6.7654 -7.3899 37.3052 -0.0000 0.0000 8.9701 -2.9340 1.4102 -35.3995 0.0000 0.0000 -20.9690 -0.1040 -0.5991 3.8371 5.6900 2.9816 21.3122 -2.6792 6.4883 -5.9291 7.7215 -4.2881 3.7950 -7.4710 19.0374 -7.1663 -18.4105 -85.1441 -179.9994 -70.3530 -179.9992 144.8729 81.6379 33.1838 -0.0000 -0.0000 0.0000 8.5094 8.3247 -10.0226 -1.7315 23.9703 85.2035 -179.9995 67.6495 179.9992 27.0184 -16.6555 17.3154 -0.0000 0.0000 -0.0000
 -0.5474 33.2372 2.9063 8.5840 22.9461 -3.9158 -5.9261 -3.6352 -3.4124 12.2693 -0.0000 0.0000 5.3337 9.1459 5.7840 -37.1874 0.0000 0.0000 -13.1744 6.4578 -7.4308 36.2023 -0.0000 0.0000 8.7500 -2.7447 1.2839 -35.3481 0.0000 -0.0000 -20.8638 -0.0703 -0.6639 3.9263 5.7269 2.8538 21.1623 -2.0393 6.4911 -6.2876 8.5978 -4.3196 4.5225 -7.0766 19.2832 -6.4143 -17.6475 -85.6907 -179.9994 -70.6311 -179.9992 143.8799 81.6181 35.1086 -0.0000 -0.0000 0.0000 8.5042 8.2898 -9.9574 -1.2807 23.9633 84.7528 -179.9995 68.1597 179.9992 26.4466 -16.4871 14.9343 -0.0000 0.0000 -0.0000
 -0.7219 33.2498 2.8756 8.8225 21.1759 -3.3461 -6.3067 -4.4221 -3.4880 12.1954 -0.0000 0.0000 5.6774 9.1136 5.4444 -37.1842 0.0000 -0.0000 -13.4290 5.7283 -7.8428 35.2564 -0.0000 0.0000 8.1046 -2.4482 1.1569 -34.7725 0.0000 0.0000 -20.4385 0.2399 -0.6497 3.2412 5.9768 2.3733 21.1599 -1.4317 6.5864 -6.4211 8.8970 -4.3494 4.4230 -8.0063 19.2811 -4.2542 -16.5140 -86.0190 -179.9994 -70.9668 -179.9991 146.6775 82.5034 32.7989 -0.0000 -0.0000 0.0000 9.0778 7.9246 -9.7501 -1.0637 23.5578 84.5486 -179.9995 68.6011 179.9992 26.0653 -15.9983 13.2592 -0.0000 0.0000 -0.0000
 -0.9302 33.2761 2.8816 8.7740 19.5506 -3.0471 -6.8777 -3.8283 -3.0372 13.3310 -0.0000 0.0000 5.6389 7.7908 5.6977 -37.5422 0.0000 -0.0000 -13.2073 5.4749 -7.6419 33.9582 -0.0000 0.0000 7.7317 -2.4039 0.8097 -34.4476 0.0000 -0.0000 -20.2627 0.1714 -0.6735 3.4508 5.8966 2.1968 20.7367 -0.7132 6.3682 -6.5945 9.6179 -4.0830 4.9918 -7.5207 19.4058 -3.5966 -15.7306 -86.5462 -179.9994 -71.6632 -179.9991 152.8118 83.0758 28.2618 -0.0000 0.0000 -0.0000 9.3402 7.8531 -9.6517 -0.9874 23.6212 84.4155 -179.9994 69.4293 179.9992 25.9762 -15.7404 10.4456 -0.0000 0.0000 -0.0000
